<svg xmlns="http://www.w3.org/2000/svg" viewBox="0 0 820 550" font-family="'Segoe UI', Arial, sans-serif">
  <defs>
    <style>
      .title { font-size: 16px; font-weight: 700; fill: #1e293b; }
      .case-title { font-size: 13px; font-weight: 700; fill: #4f46e5; }
      .label { font-size: 11px; font-weight: 600; fill: #475569; }
      .cell-text { font-size: 10px; fill: #334155; font-weight: 500; }
      .formula { font-size: 13px; fill: #6366f1; font-weight: 700; }
      .result { font-size: 12px; fill: #059669; font-weight: 600; }
      .dim { font-size: 11px; fill: #94a3b8; font-weight: 500; }
      .param { font-size: 11px; fill: #64748b; }
    </style>
    <linearGradient id="inG" x1="0" y1="0" x2="0" y2="1">
      <stop offset="0%" stop-color="#eff6ff"/>
      <stop offset="100%" stop-color="#dbeafe"/>
    </linearGradient>
    <linearGradient id="hiG" x1="0" y1="0" x2="0" y2="1">
      <stop offset="0%" stop-color="#c7d2fe"/>
      <stop offset="100%" stop-color="#a5b4fc"/>
    </linearGradient>
    <linearGradient id="outG" x1="0" y1="0" x2="0" y2="1">
      <stop offset="0%" stop-color="#d1fae5"/>
      <stop offset="100%" stop-color="#a7f3d0"/>
    </linearGradient>
    <linearGradient id="padG" x1="0" y1="0" x2="0" y2="1">
      <stop offset="0%" stop-color="#fef2f2"/>
      <stop offset="100%" stop-color="#fecaca"/>
    </linearGradient>
    <marker id="arr" markerWidth="7" markerHeight="5" refX="7" refY="2.5" orient="auto">
      <polygon points="0 0, 7 2.5, 0 5" fill="#64748b"/>
    </marker>
  </defs>

  <!-- Title -->
  <text x="410" y="28" text-anchor="middle" class="title">Output Size Calculation — Effect of Stride &amp; Padding</text>

  <!-- Formula bar -->
  <rect x="130" y="42" width="560" height="32" rx="6" fill="#f8fafc" stroke="#e2e8f0" stroke-width="1"/>
  <text x="410" y="64" text-anchor="middle" class="formula">Output = ⌊(H + 2p − K) / s⌋ + 1</text>

  <!-- ====== CASE 1: stride=1, padding=0 ====== -->
  <text x="140" y="110" text-anchor="middle" class="case-title">Case 1</text>
  <text x="140" y="126" text-anchor="middle" class="param">stride=1, padding=0</text>

  <!-- Input 5×5 -->
  <g transform="translate(50, 138)">
    <text x="45" y="-5" text-anchor="middle" class="label">Input 5×5</text>
    <!-- Row 0 -->
    <rect x="0" y="0" width="18" height="18" rx="2" fill="url(#hiG)" stroke="#6366f1" stroke-width="1"/>
    <rect x="18" y="0" width="18" height="18" rx="2" fill="url(#hiG)" stroke="#6366f1" stroke-width="1"/>
    <rect x="36" y="0" width="18" height="18" rx="2" fill="url(#hiG)" stroke="#6366f1" stroke-width="1"/>
    <rect x="54" y="0" width="18" height="18" rx="2" fill="url(#inG)" stroke="#93c5fd" stroke-width="0.8"/>
    <rect x="72" y="0" width="18" height="18" rx="2" fill="url(#inG)" stroke="#93c5fd" stroke-width="0.8"/>
    <!-- Row 1 -->
    <rect x="0" y="18" width="18" height="18" rx="2" fill="url(#hiG)" stroke="#6366f1" stroke-width="1"/>
    <rect x="18" y="18" width="18" height="18" rx="2" fill="url(#hiG)" stroke="#6366f1" stroke-width="1"/>
    <rect x="36" y="18" width="18" height="18" rx="2" fill="url(#hiG)" stroke="#6366f1" stroke-width="1"/>
    <rect x="54" y="18" width="18" height="18" rx="2" fill="url(#inG)" stroke="#93c5fd" stroke-width="0.8"/>
    <rect x="72" y="18" width="18" height="18" rx="2" fill="url(#inG)" stroke="#93c5fd" stroke-width="0.8"/>
    <!-- Row 2 -->
    <rect x="0" y="36" width="18" height="18" rx="2" fill="url(#hiG)" stroke="#6366f1" stroke-width="1"/>
    <rect x="18" y="36" width="18" height="18" rx="2" fill="url(#hiG)" stroke="#6366f1" stroke-width="1"/>
    <rect x="36" y="36" width="18" height="18" rx="2" fill="url(#hiG)" stroke="#6366f1" stroke-width="1"/>
    <rect x="54" y="36" width="18" height="18" rx="2" fill="url(#inG)" stroke="#93c5fd" stroke-width="0.8"/>
    <rect x="72" y="36" width="18" height="18" rx="2" fill="url(#inG)" stroke="#93c5fd" stroke-width="0.8"/>
    <!-- Row 3 -->
    <rect x="0" y="54" width="18" height="18" rx="2" fill="url(#inG)" stroke="#93c5fd" stroke-width="0.8"/>
    <rect x="18" y="54" width="18" height="18" rx="2" fill="url(#inG)" stroke="#93c5fd" stroke-width="0.8"/>
    <rect x="36" y="54" width="18" height="18" rx="2" fill="url(#inG)" stroke="#93c5fd" stroke-width="0.8"/>
    <rect x="54" y="54" width="18" height="18" rx="2" fill="url(#inG)" stroke="#93c5fd" stroke-width="0.8"/>
    <rect x="72" y="54" width="18" height="18" rx="2" fill="url(#inG)" stroke="#93c5fd" stroke-width="0.8"/>
    <!-- Row 4 -->
    <rect x="0" y="72" width="18" height="18" rx="2" fill="url(#inG)" stroke="#93c5fd" stroke-width="0.8"/>
    <rect x="18" y="72" width="18" height="18" rx="2" fill="url(#inG)" stroke="#93c5fd" stroke-width="0.8"/>
    <rect x="36" y="72" width="18" height="18" rx="2" fill="url(#inG)" stroke="#93c5fd" stroke-width="0.8"/>
    <rect x="54" y="72" width="18" height="18" rx="2" fill="url(#inG)" stroke="#93c5fd" stroke-width="0.8"/>
    <rect x="72" y="72" width="18" height="18" rx="2" fill="url(#inG)" stroke="#93c5fd" stroke-width="0.8"/>
    <!-- 3×3 kernel outline -->
    <rect x="-1" y="-1" width="56" height="56" rx="3" fill="none" stroke="#6366f1" stroke-width="2" stroke-dasharray="4,2"/>
  </g>

  <!-- Arrow -->
  <line x1="150" y1="185" x2="186" y2="185" stroke="#64748b" stroke-width="1.5" marker-end="url(#arr)"/>

  <!-- Output 3×3 -->
  <g transform="translate(195, 140)">
    <text x="27" y="-7" text-anchor="middle" class="label">Output 3×3</text>
    <rect x="0" y="0" width="18" height="18" rx="2" fill="url(#outG)" stroke="#059669" stroke-width="1"/>
    <rect x="18" y="0" width="18" height="18" rx="2" fill="url(#outG)" stroke="#059669" stroke-width="1"/>
    <rect x="36" y="0" width="18" height="18" rx="2" fill="url(#outG)" stroke="#059669" stroke-width="1"/>
    <rect x="0" y="18" width="18" height="18" rx="2" fill="url(#outG)" stroke="#059669" stroke-width="1"/>
    <rect x="18" y="18" width="18" height="18" rx="2" fill="url(#outG)" stroke="#059669" stroke-width="1"/>
    <rect x="36" y="18" width="18" height="18" rx="2" fill="url(#outG)" stroke="#059669" stroke-width="1"/>
    <rect x="0" y="36" width="18" height="18" rx="2" fill="url(#outG)" stroke="#059669" stroke-width="1"/>
    <rect x="18" y="36" width="18" height="18" rx="2" fill="url(#outG)" stroke="#059669" stroke-width="1"/>
    <rect x="36" y="36" width="18" height="18" rx="2" fill="url(#outG)" stroke="#059669" stroke-width="1"/>
  </g>

  <text x="140" y="248" text-anchor="middle" class="result">⌊(5+0−3)/1⌋+1 = 3</text>

  <!-- ====== CASE 2: stride=2, padding=0 ====== -->
  <text x="450" y="110" text-anchor="middle" class="case-title">Case 2</text>
  <text x="450" y="126" text-anchor="middle" class="param">stride=2, padding=0</text>

  <!-- Input 5×5 with stride=2 highlights -->
  <g transform="translate(365, 138)">
    <text x="45" y="-5" text-anchor="middle" class="label">Input 5×5</text>
    <!-- Row 0 -->
    <rect x="0" y="0" width="18" height="18" rx="2" fill="url(#hiG)" stroke="#6366f1" stroke-width="1"/>
    <rect x="18" y="0" width="18" height="18" rx="2" fill="url(#hiG)" stroke="#6366f1" stroke-width="1"/>
    <rect x="36" y="0" width="18" height="18" rx="2" fill="url(#hiG)" stroke="#6366f1" stroke-width="1"/>
    <rect x="54" y="0" width="18" height="18" rx="2" fill="url(#inG)" stroke="#93c5fd" stroke-width="0.8"/>
    <rect x="72" y="0" width="18" height="18" rx="2" fill="url(#inG)" stroke="#93c5fd" stroke-width="0.8"/>
    <!-- Row 1 -->
    <rect x="0" y="18" width="18" height="18" rx="2" fill="url(#hiG)" stroke="#6366f1" stroke-width="1"/>
    <rect x="18" y="18" width="18" height="18" rx="2" fill="url(#hiG)" stroke="#6366f1" stroke-width="1"/>
    <rect x="36" y="18" width="18" height="18" rx="2" fill="url(#hiG)" stroke="#6366f1" stroke-width="1"/>
    <rect x="54" y="18" width="18" height="18" rx="2" fill="url(#inG)" stroke="#93c5fd" stroke-width="0.8"/>
    <rect x="72" y="18" width="18" height="18" rx="2" fill="url(#inG)" stroke="#93c5fd" stroke-width="0.8"/>
    <!-- Row 2 -->
    <rect x="0" y="36" width="18" height="18" rx="2" fill="url(#hiG)" stroke="#6366f1" stroke-width="1"/>
    <rect x="18" y="36" width="18" height="18" rx="2" fill="url(#hiG)" stroke="#6366f1" stroke-width="1"/>
    <rect x="36" y="36" width="18" height="18" rx="2" fill="url(#hiG)" stroke="#6366f1" stroke-width="1"/>
    <rect x="54" y="36" width="18" height="18" rx="2" fill="url(#inG)" stroke="#93c5fd" stroke-width="0.8"/>
    <rect x="72" y="36" width="18" height="18" rx="2" fill="url(#inG)" stroke="#93c5fd" stroke-width="0.8"/>
    <!-- Row 3 -->
    <rect x="0" y="54" width="18" height="18" rx="2" fill="url(#inG)" stroke="#93c5fd" stroke-width="0.8"/>
    <rect x="18" y="54" width="18" height="18" rx="2" fill="url(#inG)" stroke="#93c5fd" stroke-width="0.8"/>
    <rect x="36" y="54" width="18" height="18" rx="2" fill="url(#inG)" stroke="#93c5fd" stroke-width="0.8"/>
    <rect x="54" y="54" width="18" height="18" rx="2" fill="url(#inG)" stroke="#93c5fd" stroke-width="0.8"/>
    <rect x="72" y="54" width="18" height="18" rx="2" fill="url(#inG)" stroke="#93c5fd" stroke-width="0.8"/>
    <!-- Row 4 -->
    <rect x="0" y="72" width="18" height="18" rx="2" fill="url(#inG)" stroke="#93c5fd" stroke-width="0.8"/>
    <rect x="18" y="72" width="18" height="18" rx="2" fill="url(#inG)" stroke="#93c5fd" stroke-width="0.8"/>
    <rect x="36" y="72" width="18" height="18" rx="2" fill="url(#inG)" stroke="#93c5fd" stroke-width="0.8"/>
    <rect x="54" y="72" width="18" height="18" rx="2" fill="url(#inG)" stroke="#93c5fd" stroke-width="0.8"/>
    <rect x="72" y="72" width="18" height="18" rx="2" fill="url(#inG)" stroke="#93c5fd" stroke-width="0.8"/>
    <!-- 3×3 kernel with stride=2 indication -->
    <rect x="-1" y="-1" width="56" height="56" rx="3" fill="none" stroke="#6366f1" stroke-width="2" stroke-dasharray="4,2"/>
    <!-- Stride arrows -->
    <line x1="27" y1="60" x2="27" y2="74" stroke="#e11d48" stroke-width="1.5" marker-end="url(#arrRed)"/>
    <line x1="58" y1="27" x2="72" y2="27" stroke="#e11d48" stroke-width="1.5" marker-end="url(#arrRed)"/>
    <text x="80" y="30" class="dim" fill="#e11d48" font-size="9">s=2</text>
  </g>

  <defs>
    <marker id="arrRed" markerWidth="5" markerHeight="4" refX="5" refY="2" orient="auto">
      <polygon points="0 0, 5 2, 0 4" fill="#e11d48"/>
    </marker>
  </defs>

  <!-- Arrow -->
  <line x1="465" y1="185" x2="501" y2="185" stroke="#64748b" stroke-width="1.5" marker-end="url(#arr)"/>

  <!-- Output 2×2 -->
  <g transform="translate(510, 148)">
    <text x="18" y="-15" text-anchor="middle" class="label">Output 2×2</text>
    <rect x="0" y="0" width="18" height="18" rx="2" fill="url(#outG)" stroke="#059669" stroke-width="1"/>
    <rect x="18" y="0" width="18" height="18" rx="2" fill="url(#outG)" stroke="#059669" stroke-width="1"/>
    <rect x="0" y="18" width="18" height="18" rx="2" fill="url(#outG)" stroke="#059669" stroke-width="1"/>
    <rect x="18" y="18" width="18" height="18" rx="2" fill="url(#outG)" stroke="#059669" stroke-width="1"/>
  </g>

  <text x="450" y="248" text-anchor="middle" class="result">⌊(5+0−3)/2⌋+1 = 2</text>

  <!-- ====== CASE 3: stride=1, padding=1 ====== -->
  <text x="700" y="110" text-anchor="middle" class="case-title">Case 3</text>
  <text x="700" y="126" text-anchor="middle" class="param">stride=1, padding=1</text>

  <g transform="translate(607, 128)">
    <text x="63" y="-3" text-anchor="middle" class="label">Input 5×5 + pad</text>
    <!-- Padding ring (7×7 outer) -->
    <!-- Top padding row -->
    <rect x="0" y="0" width="18" height="18" rx="2" fill="url(#padG)" stroke="#fca5a5" stroke-width="0.8"/>
    <rect x="18" y="0" width="18" height="18" rx="2" fill="url(#padG)" stroke="#fca5a5" stroke-width="0.8"/>
    <rect x="36" y="0" width="18" height="18" rx="2" fill="url(#padG)" stroke="#fca5a5" stroke-width="0.8"/>
    <rect x="54" y="0" width="18" height="18" rx="2" fill="url(#padG)" stroke="#fca5a5" stroke-width="0.8"/>
    <rect x="72" y="0" width="18" height="18" rx="2" fill="url(#padG)" stroke="#fca5a5" stroke-width="0.8"/>
    <rect x="90" y="0" width="18" height="18" rx="2" fill="url(#padG)" stroke="#fca5a5" stroke-width="0.8"/>
    <rect x="108" y="0" width="18" height="18" rx="2" fill="url(#padG)" stroke="#fca5a5" stroke-width="0.8"/>
    <!-- Rows 1-5: left pad + 5 input + right pad -->
    <!-- Row 1 -->
    <rect x="0" y="18" width="18" height="18" rx="2" fill="url(#padG)" stroke="#fca5a5" stroke-width="0.8"/>
    <rect x="18" y="18" width="18" height="18" rx="2" fill="url(#inG)" stroke="#93c5fd" stroke-width="0.8"/>
    <rect x="36" y="18" width="18" height="18" rx="2" fill="url(#inG)" stroke="#93c5fd" stroke-width="0.8"/>
    <rect x="54" y="18" width="18" height="18" rx="2" fill="url(#inG)" stroke="#93c5fd" stroke-width="0.8"/>
    <rect x="72" y="18" width="18" height="18" rx="2" fill="url(#inG)" stroke="#93c5fd" stroke-width="0.8"/>
    <rect x="90" y="18" width="18" height="18" rx="2" fill="url(#inG)" stroke="#93c5fd" stroke-width="0.8"/>
    <rect x="108" y="18" width="18" height="18" rx="2" fill="url(#padG)" stroke="#fca5a5" stroke-width="0.8"/>
    <!-- Row 2 -->
    <rect x="0" y="36" width="18" height="18" rx="2" fill="url(#padG)" stroke="#fca5a5" stroke-width="0.8"/>
    <rect x="18" y="36" width="18" height="18" rx="2" fill="url(#inG)" stroke="#93c5fd" stroke-width="0.8"/>
    <rect x="36" y="36" width="18" height="18" rx="2" fill="url(#inG)" stroke="#93c5fd" stroke-width="0.8"/>
    <rect x="54" y="36" width="18" height="18" rx="2" fill="url(#inG)" stroke="#93c5fd" stroke-width="0.8"/>
    <rect x="72" y="36" width="18" height="18" rx="2" fill="url(#inG)" stroke="#93c5fd" stroke-width="0.8"/>
    <rect x="90" y="36" width="18" height="18" rx="2" fill="url(#inG)" stroke="#93c5fd" stroke-width="0.8"/>
    <rect x="108" y="36" width="18" height="18" rx="2" fill="url(#padG)" stroke="#fca5a5" stroke-width="0.8"/>
    <!-- Row 3 -->
    <rect x="0" y="54" width="18" height="18" rx="2" fill="url(#padG)" stroke="#fca5a5" stroke-width="0.8"/>
    <rect x="18" y="54" width="18" height="18" rx="2" fill="url(#inG)" stroke="#93c5fd" stroke-width="0.8"/>
    <rect x="36" y="54" width="18" height="18" rx="2" fill="url(#inG)" stroke="#93c5fd" stroke-width="0.8"/>
    <rect x="54" y="54" width="18" height="18" rx="2" fill="url(#inG)" stroke="#93c5fd" stroke-width="0.8"/>
    <rect x="72" y="54" width="18" height="18" rx="2" fill="url(#inG)" stroke="#93c5fd" stroke-width="0.8"/>
    <rect x="90" y="54" width="18" height="18" rx="2" fill="url(#inG)" stroke="#93c5fd" stroke-width="0.8"/>
    <rect x="108" y="54" width="18" height="18" rx="2" fill="url(#padG)" stroke="#fca5a5" stroke-width="0.8"/>
    <!-- Row 4 -->
    <rect x="0" y="72" width="18" height="18" rx="2" fill="url(#padG)" stroke="#fca5a5" stroke-width="0.8"/>
    <rect x="18" y="72" width="18" height="18" rx="2" fill="url(#inG)" stroke="#93c5fd" stroke-width="0.8"/>
    <rect x="36" y="72" width="18" height="18" rx="2" fill="url(#inG)" stroke="#93c5fd" stroke-width="0.8"/>
    <rect x="54" y="72" width="18" height="18" rx="2" fill="url(#inG)" stroke="#93c5fd" stroke-width="0.8"/>
    <rect x="72" y="72" width="18" height="18" rx="2" fill="url(#inG)" stroke="#93c5fd" stroke-width="0.8"/>
    <rect x="90" y="72" width="18" height="18" rx="2" fill="url(#inG)" stroke="#93c5fd" stroke-width="0.8"/>
    <rect x="108" y="72" width="18" height="18" rx="2" fill="url(#padG)" stroke="#fca5a5" stroke-width="0.8"/>
    <!-- Row 5 -->
    <rect x="0" y="90" width="18" height="18" rx="2" fill="url(#padG)" stroke="#fca5a5" stroke-width="0.8"/>
    <rect x="18" y="90" width="18" height="18" rx="2" fill="url(#inG)" stroke="#93c5fd" stroke-width="0.8"/>
    <rect x="36" y="90" width="18" height="18" rx="2" fill="url(#inG)" stroke="#93c5fd" stroke-width="0.8"/>
    <rect x="54" y="90" width="18" height="18" rx="2" fill="url(#inG)" stroke="#93c5fd" stroke-width="0.8"/>
    <rect x="72" y="90" width="18" height="18" rx="2" fill="url(#inG)" stroke="#93c5fd" stroke-width="0.8"/>
    <rect x="90" y="90" width="18" height="18" rx="2" fill="url(#inG)" stroke="#93c5fd" stroke-width="0.8"/>
    <rect x="108" y="90" width="18" height="18" rx="2" fill="url(#padG)" stroke="#fca5a5" stroke-width="0.8"/>
    <!-- Bottom padding row -->
    <rect x="0" y="108" width="18" height="18" rx="2" fill="url(#padG)" stroke="#fca5a5" stroke-width="0.8"/>
    <rect x="18" y="108" width="18" height="18" rx="2" fill="url(#padG)" stroke="#fca5a5" stroke-width="0.8"/>
    <rect x="36" y="108" width="18" height="18" rx="2" fill="url(#padG)" stroke="#fca5a5" stroke-width="0.8"/>
    <rect x="54" y="108" width="18" height="18" rx="2" fill="url(#padG)" stroke="#fca5a5" stroke-width="0.8"/>
    <rect x="72" y="108" width="18" height="18" rx="2" fill="url(#padG)" stroke="#fca5a5" stroke-width="0.8"/>
    <rect x="90" y="108" width="18" height="18" rx="2" fill="url(#padG)" stroke="#fca5a5" stroke-width="0.8"/>
    <rect x="108" y="108" width="18" height="18" rx="2" fill="url(#padG)" stroke="#fca5a5" stroke-width="0.8"/>

    <!-- Padding label -->
    <text x="130" y="11" class="dim" font-size="9" fill="#e11d48">p=1</text>
  </g>

  <!-- Output label -->
  <text x="700" y="258" text-anchor="middle" class="label">Output 5×5</text>
  <text x="700" y="278" text-anchor="middle" class="result">⌊(5+2−3)/1⌋+1 = 5</text>
  <text x="700" y="296" text-anchor="middle" class="dim">"same" padding preserves size</text>

  <!-- ====== SUMMARY TABLE ====== -->
  <rect x="60" y="330" width="700" height="195" rx="10" fill="#f8fafc" stroke="#e2e8f0" stroke-width="1.5"/>
  <text x="410" y="356" text-anchor="middle" class="case-title" font-size="14">Quick Reference</text>

  <!-- Table headers -->
  <text x="140" y="385" text-anchor="middle" class="label" font-size="12">Input</text>
  <text x="260" y="385" text-anchor="middle" class="label" font-size="12">Kernel</text>
  <text x="370" y="385" text-anchor="middle" class="label" font-size="12">Stride</text>
  <text x="470" y="385" text-anchor="middle" class="label" font-size="12">Padding</text>
  <text x="580" y="385" text-anchor="middle" class="label" font-size="12">Output</text>
  <text x="690" y="385" text-anchor="middle" class="label" font-size="12">Calculation</text>

  <line x1="80" y1="393" x2="740" y2="393" stroke="#e2e8f0" stroke-width="1"/>

  <!-- Row 1 -->
  <text x="140" y="415" text-anchor="middle" class="param">5×5</text>
  <text x="260" y="415" text-anchor="middle" class="param">3×3</text>
  <text x="370" y="415" text-anchor="middle" class="param">1</text>
  <text x="470" y="415" text-anchor="middle" class="param">0</text>
  <text x="580" y="415" text-anchor="middle" class="result">3×3</text>
  <text x="690" y="415" text-anchor="middle" class="dim">⌊(5+0−3)/1⌋+1</text>

  <!-- Row 2 -->
  <text x="140" y="440" text-anchor="middle" class="param">5×5</text>
  <text x="260" y="440" text-anchor="middle" class="param">3×3</text>
  <text x="370" y="440" text-anchor="middle" class="param">2</text>
  <text x="470" y="440" text-anchor="middle" class="param">0</text>
  <text x="580" y="440" text-anchor="middle" class="result">2×2</text>
  <text x="690" y="440" text-anchor="middle" class="dim">⌊(5+0−3)/2⌋+1</text>

  <!-- Row 3 -->
  <text x="140" y="465" text-anchor="middle" class="param">5×5</text>
  <text x="260" y="465" text-anchor="middle" class="param">3×3</text>
  <text x="370" y="465" text-anchor="middle" class="param">1</text>
  <text x="470" y="465" text-anchor="middle" class="param">1</text>
  <text x="580" y="465" text-anchor="middle" class="result">5×5</text>
  <text x="690" y="465" text-anchor="middle" class="dim">⌊(5+2−3)/1⌋+1</text>

  <!-- Row 4 -->
  <text x="140" y="490" text-anchor="middle" class="param">7×7</text>
  <text x="260" y="490" text-anchor="middle" class="param">3×3</text>
  <text x="370" y="490" text-anchor="middle" class="param">2</text>
  <text x="470" y="490" text-anchor="middle" class="param">1</text>
  <text x="580" y="490" text-anchor="middle" class="result">4×4</text>
  <text x="690" y="490" text-anchor="middle" class="dim">⌊(7+2−3)/2⌋+1</text>

  <!-- Row 5 -->
  <text x="140" y="515" text-anchor="middle" class="param">28×28</text>
  <text x="260" y="515" text-anchor="middle" class="param">5×5</text>
  <text x="370" y="515" text-anchor="middle" class="param">1</text>
  <text x="470" y="515" text-anchor="middle" class="param">0</text>
  <text x="580" y="515" text-anchor="middle" class="result">24×24</text>
  <text x="690" y="515" text-anchor="middle" class="dim">⌊(28+0−5)/1⌋+1</text>
</svg>
