<svg xmlns="http://www.w3.org/2000/svg" width="860" height="360" viewBox="0 0 860 360" role="img" aria-labelledby="t d">
  <title id="t">Manifold learning graphical view</title>
  <desc id="d">Same nonlinear data represented by different manifold methods in 2D layouts.</desc>
  <defs><style>
    .bg{fill:#fff}.title{font:700 18px Arial,sans-serif;fill:#111}.txt{font:12px Arial,sans-serif;fill:#222}
    .frame{fill:#fafafa;stroke:#111;stroke-width:1.6}.pt{fill:#555}.ln{stroke:#888;stroke-width:1.1}
  </style></defs>
  <rect class="bg" width="860" height="360"/>
  <text class="title" x="430" y="30" text-anchor="middle">Manifold Learning: Different Geometry-Preserving Views</text>
  <rect class="frame" x="20" y="58" width="160" height="130" rx="8"/><text class="txt" x="100" y="78" text-anchor="middle">Isomap</text>
  <circle class="pt" cx="60" cy="140" r="4"/><circle class="pt" cx="85" cy="125" r="4"/><circle class="pt" cx="110" cy="118" r="4"/><circle class="pt" cx="135" cy="108" r="4"/><line class="ln" x1="60" y1="140" x2="85" y2="125"/><line class="ln" x1="85" y1="125" x2="110" y2="118"/><line class="ln" x1="110" y1="118" x2="135" y2="108"/>
  <rect class="frame" x="190" y="58" width="160" height="130" rx="8"/><text class="txt" x="270" y="78" text-anchor="middle">LLE</text>
  <circle class="pt" cx="230" cy="145" r="4"/><circle class="pt" cx="250" cy="132" r="4"/><circle class="pt" cx="270" cy="122" r="4"/><circle class="pt" cx="290" cy="114" r="4"/><circle class="pt" cx="310" cy="108" r="4"/>
  <line class="ln" x1="230" y1="145" x2="250" y2="132"/><line class="ln" x1="250" y1="132" x2="270" y2="122"/><line class="ln" x1="270" y1="122" x2="290" y2="114"/>
  <rect class="frame" x="360" y="58" width="160" height="130" rx="8"/><text class="txt" x="440" y="78" text-anchor="middle">Eigenmaps</text>
  <circle class="pt" cx="400" cy="145" r="4"/><circle class="pt" cx="420" cy="130" r="4"/><circle class="pt" cx="440" cy="120" r="4"/><circle class="pt" cx="460" cy="130" r="4"/><circle class="pt" cx="480" cy="145" r="4"/>
  <line class="ln" x1="400" y1="145" x2="420" y2="130"/><line class="ln" x1="420" y1="130" x2="440" y2="120"/><line class="ln" x1="440" y1="120" x2="460" y2="130"/><line class="ln" x1="460" y1="130" x2="480" y2="145"/>
  <rect class="frame" x="530" y="58" width="160" height="130" rx="8"/><text class="txt" x="610" y="78" text-anchor="middle">t-SNE</text>
  <circle class="pt" cx="575" cy="120" r="4"/><circle class="pt" cx="590" cy="126" r="4"/><circle class="pt" cx="604" cy="119" r="4"/><circle class="pt" cx="625" cy="150" r="4"/><circle class="pt" cx="640" cy="155" r="4"/><circle class="pt" cx="656" cy="149" r="4"/>
  <rect class="frame" x="700" y="58" width="140" height="130" rx="8"/><text class="txt" x="770" y="78" text-anchor="middle">UMAP</text>
  <circle class="pt" cx="730" cy="118" r="4"/><circle class="pt" cx="748" cy="124" r="4"/><circle class="pt" cx="766" cy="117" r="4"/><circle class="pt" cx="790" cy="142" r="4"/><circle class="pt" cx="808" cy="150" r="4"/>
  <rect class="frame" x="120" y="210" width="620" height="130" rx="10"/>
  <text class="txt" x="430" y="235" text-anchor="middle">Common assumption: high-dimensional data lies near a low-dimensional manifold</text>
  <path d="M180 300 C240 240, 320 330, 390 280 C450 240, 520 320, 600 270 C640 245, 680 250, 720 286" fill="none" stroke="#111" stroke-width="2"/>
  <circle class="pt" cx="210" cy="284" r="4"/><circle class="pt" cx="260" cy="266" r="4"/><circle class="pt" cx="310" cy="292" r="4"/><circle class="pt" cx="360" cy="283" r="4"/><circle class="pt" cx="430" cy="260" r="4"/><circle class="pt" cx="500" cy="286" r="4"/><circle class="pt" cx="580" cy="272" r="4"/><circle class="pt" cx="650" cy="262" r="4"/>
</svg>
