<svg xmlns="http://www.w3.org/2000/svg" width="860" height="330" viewBox="0 0 860 330" role="img" aria-labelledby="t d">
  <title id="t">CCA graphical view</title>
  <desc id="d">Two views projected to maximally correlated canonical variables.</desc>
  <defs><style>
    .bg{fill:#fff}.title{font:700 18px Arial,sans-serif;fill:#111}.txt{font:12px Arial,sans-serif;fill:#222}
    .frame{fill:#fafafa;stroke:#111;stroke-width:1.8}.pt1{fill:#777}.pt2{fill:#333}.line{stroke:#111;stroke-width:2}
  </style></defs>
  <rect class="bg" width="860" height="330"/>
  <text class="title" x="430" y="30" text-anchor="middle">CCA: Aligning Two Views by Maximum Correlation</text>
  <rect class="frame" x="50" y="60" width="240" height="230" rx="10"/>
  <text class="txt" x="170" y="84" text-anchor="middle">View X1</text>
  <circle class="pt1" cx="110" cy="220" r="4"/><circle class="pt1" cx="130" cy="205" r="4"/><circle class="pt1" cx="150" cy="190" r="4"/><circle class="pt1" cx="170" cy="176" r="4"/><circle class="pt1" cx="190" cy="162" r="4"/><circle class="pt1" cx="210" cy="148" r="4"/>
  <line class="line" x1="95" y1="236" x2="220" y2="142"/>
  <rect class="frame" x="310" y="60" width="240" height="230" rx="10"/>
  <text class="txt" x="430" y="84" text-anchor="middle">View X2</text>
  <circle class="pt2" cx="360" cy="212" r="4"/><circle class="pt2" cx="380" cy="198" r="4"/><circle class="pt2" cx="400" cy="184" r="4"/><circle class="pt2" cx="420" cy="171" r="4"/><circle class="pt2" cx="440" cy="158" r="4"/><circle class="pt2" cx="460" cy="145" r="4"/>
  <line class="line" x1="345" y1="226" x2="470" y2="138"/>
  <rect class="frame" x="570" y="60" width="240" height="230" rx="10"/>
  <text class="txt" x="690" y="84" text-anchor="middle">Canonical space (u, v)</text>
  <circle class="pt1" cx="620" cy="205" r="4"/><circle class="pt2" cx="620" cy="198" r="3"/>
  <circle class="pt1" cx="645" cy="186" r="4"/><circle class="pt2" cx="645" cy="180" r="3"/>
  <circle class="pt1" cx="670" cy="168" r="4"/><circle class="pt2" cx="670" cy="163" r="3"/>
  <circle class="pt1" cx="695" cy="150" r="4"/><circle class="pt2" cx="695" cy="145" r="3"/>
  <circle class="pt1" cx="720" cy="132" r="4"/><circle class="pt2" cx="720" cy="128" r="3"/>
  <line class="line" x1="605" y1="218" x2="736" y2="123"/>
</svg>
